<mxfile host="app.diagrams.net" modified="2024-05-28T13:44:23.006Z" agent="Mozilla/5.0 (Windows NT 10.0; Win64; x64) AppleWebKit/537.36 (KHTML, like Gecko) Chrome/125.0.0.0 Safari/537.36" version="24.4.6" etag="bN8FX9YtZ2-q3O9yVT5T" type="github">
  <diagram name="Page-1" id="MXhf5sNlsKczrBXtF0dq">
    <mxGraphModel>
      <root>
        <mxCell id="0" />
        <mxCell id="1" parent="0" />
      </root>
    </mxGraphModel>
  </diagram>
</mxfile>
